<svg id="图层_1" data-name="图层 1" xmlns="http://www.w3.org/2000/svg" viewBox="0 0 350 70"><defs><style>.cls-1,.cls-2{fill:#b81c22;}.cls-1{fill-rule:evenodd;}</style></defs><path class="cls-1" d="M154,3.17c-1.72,0-3.56,1.76-3.56,1.76L138.26,16.78l1.33-9.39a4.47,4.47,0,0,0-4.42-5.11h-1.51a1.34,1.34,0,0,0-1.32,1.15L127.23,38.9a1.29,1.29,0,0,0,1.28,1.48h1.62a5.5,5.5,0,0,0,5.45-4.73L136.67,28,140,24.67c1.92,3,9,13.95,9,13.95s1.84,1.76,3.56,1.76l4.71,0a1.36,1.36,0,0,0,1.12-2.13L146.67,20.5a2.09,2.09,0,0,1,.28-2.65L159.76,5.22a1.19,1.19,0,0,0-.82-2Z"/><path class="cls-1" d="M97.3,2.19H69.85a2.06,2.06,0,0,0-2,1.71L67,9.54a.21.21,0,0,0,.22.24H78.51L74.14,40.1a.24.24,0,0,0,.25.28h7.17a.34.34,0,0,0,.33-.28L86.44,9.71H97.72c.14,0,.1-.11.12-.24l1-5.57A1.47,1.47,0,0,0,97.3,2.19Z"/><path class="cls-1" d="M10.76,29.29a2.68,2.68,0,0,0,2.66,3.06h8.11a5.47,5.47,0,0,1,5.55,6.42h0a1.77,1.77,0,0,1-1.7,1.47H3.74a3,3,0,0,1-3.1-3.5L5.46,3.32A1.37,1.37,0,0,1,6.77,2.19H8.16a5.49,5.49,0,0,1,5.58,6.44Z"/><path class="cls-1" d="M125,23.92h-4.35a.44.44,0,0,1-.44-.52l.66-4.55a.61.61,0,0,1,.59-.51h4.34a.43.43,0,0,1,.44.51l-.66,4.56A.61.61,0,0,1,125,23.92Z"/><path class="cls-1" d="M128.28,2.19H108.92a8.31,8.31,0,0,0-8,6.91L97.46,33.26a5.94,5.94,0,0,0,6,7h19.48a.29.29,0,0,0,.28-.25l.3-2.73a4.25,4.25,0,0,0-4.23-4.72h-9.37a3.65,3.65,0,0,1-3.66-4.3,5.1,5.1,0,0,1,4.86-4.29h6.29a.63.63,0,0,0,.6-.52l.64-4.54a.45.45,0,0,0-.45-.53h-6.3a3.34,3.34,0,0,1-3.32-1.79c-1.51-3.35,1.34-6.79,4.52-6.79H123a5.2,5.2,0,0,0,5.15-4.48l.39-2.85A.2.2,0,0,0,128.28,2.19Z"/><path class="cls-2" d="M62.11,23a8.22,8.22,0,0,0-3.87-3.13,11.68,11.68,0,0,0,3.47-2.94,10.15,10.15,0,0,0,2.1-4.78A8.76,8.76,0,0,0,63,6.92a7.76,7.76,0,0,0-3.87-3.68A17.47,17.47,0,0,0,52,2.07l-13.82,0a3.27,3.27,0,0,0-3.12,2.7L30.55,36.31A3.35,3.35,0,0,0,34,40.24H46.77a28.13,28.13,0,0,0,6.38-.63,14.62,14.62,0,0,0,4.66-1.93A12.29,12.29,0,0,0,61.3,34a12.56,12.56,0,0,0,1.93-5.09A8.51,8.51,0,0,0,62.11,23Zm-13.46.85H50.5a4.33,4.33,0,0,1,.89.09l.45.12h0a3.68,3.68,0,0,1,2.5,4.15,5.17,5.17,0,0,1-5,4.35H40a.85.85,0,0,1-.84-1l3-21a.9.9,0,0,1,.89-.77H53.28a3.14,3.14,0,0,1,3.17,3.7,4.39,4.39,0,0,1-4.13,3.69H44.07a.3.3,0,0,0-.29.25l-.1.68A4.89,4.89,0,0,0,48.65,23.82Z"/><path class="cls-2" d="M348.42,5.36a3.12,3.12,0,0,0-2.49-.91l-12.52,0,.5-3-6.18,0-.5,3-12.67,0h0a3.48,3.48,0,0,0-3.75,3.22l-3,22,16,.05-.52,3.74a5.67,5.67,0,0,0,5.8,6.73c2.54.06,5.3.08,7.2.08l9.74,0h.79l2.2-5.67-14.92-.08h-2.41a12.55,12.55,0,0,1-1.59-.07c-.65-.09-.73-.25-.65-.82.17-1.25.34-2.51.52-3.76l0-.15,16,.06L349,7.8A2.93,2.93,0,0,0,348.42,5.36ZM341.3,20.05l-.53,3.83-10,0L331.3,20Zm1.36-9.79-.55,4-10,0,.56-4ZM325.06,20l-.53,3.85-10,0,.54-3.85Zm1.36-9.76-.55,4-10,0,.55-4Z"/><path class="cls-2" d="M290.94,33.62l2.46-10.9,9.53,0a.9.9,0,0,0,.85-.66l1.31-4.94-9.83,0,6.29-13.48a.35.35,0,0,0-.31-.53l-5.82,0,0,0-6.55,14h-1.8l2.42-15.61-5.81,0a.1.1,0,0,0-.09.08L281.16,17.1h-1.58L276.72,3.26a.18.18,0,0,0-.16-.13l-6.17,0a.08.08,0,0,0-.08.09l2.83,13.87-8.47,0a.12.12,0,0,0-.11.09l-1.41,5.33a.15.15,0,0,0,.16.2l9.51,0L271,26.92a9.48,9.48,0,0,1-2.08,3.33l-7.78,9.58a.28.28,0,0,0,.2.47h6.44a1.3,1.3,0,0,0,1-.47L275,32.52A9.38,9.38,0,0,0,277.13,29l2.4-6.25,7.25,0L284.1,35.57a3.88,3.88,0,0,0,4.07,4.64l10.24,0a3.88,3.88,0,0,0,3.8-2.9l.71-2.66H291.81A.85.85,0,0,1,290.94,33.62Z"/><path class="cls-2" d="M225.68,38.84a70.94,70.94,0,0,0,5.79-10.1h7.66l1.3-4.24h-7.71a26.3,26.3,0,0,0,1.41-4.93c.06-.39.13-.77.2-1.16H241c.43-1.4.86-2.79,1.3-4.19h-7.18c.36-2,.71-4.06,1.07-6.09h6.62c.44-1.41.87-2.82,1.31-4.24h-7.18c.26-1.1.27-1.3.52-2.43H231c-.28,1.15-.22,1.27-.51,2.43h-7.18l-.75,4.24h7.18q-.54,3-1.07,6.09h-7.18c-.25,1.4-.49,2.79-.74,4.19h7.18a16.94,16.94,0,0,1-1.74,6.09h-6.51l-.75,4.24h6A90.88,90.88,0,0,1,218,40.3H223a2.9,2.9,0,0,0,2.73-1.46"/><path class="cls-2" d="M202.93,35.44c-.28,1.59.28,1.49,1.35,1.49h6.39l-2.06,3.28h-8.1a3.42,3.42,0,0,1-3.7-2.75,6.32,6.32,0,0,1-.13-2.8l.66-3.73h6.39l-.24,1.35h8l-1,2.38h-7.45c0,.26-.09.52-.14.78"/><path class="cls-2" d="M186.5,35.44c-.28,1.59.28,1.49,1.36,1.49h6.39l-2.07,3.28h-8.09a3.43,3.43,0,0,1-3.71-2.75,6.47,6.47,0,0,1-.13-2.8l.66-3.73h6.39l-.24,1.35h8l-1,2.38h-7.45c0,.26-.09.52-.14.78"/><path class="cls-2" d="M182.1,18.17h32l1.14-3.31h-16c.09-.54.18-1.07.28-1.61h-6.39c-.09.54-.19,1.07-.28,1.61h-14a3.27,3.27,0,0,0-3.23,2.71q-1.22,6.84-2.42,13.68c-.56,3.18-2,6.94-4,9h6.36s3.39-5.4,4-9c.09-.49.18-1,.26-1.46H208.2a3.28,3.28,0,0,0,3.23-2.71l.48-2.71a3.29,3.29,0,0,0-3.23-3.86h-5.45l.24-1.39h-6.39l-.24,1.39h-4c.09-.46.17-.92.25-1.39h-6.39c-.08.47-.16.93-.25,1.39h-5c.13-.78.27-1.56.41-2.34Zm20.62,5.23h5l-.55,3.08h-5Zm-10.42,0h4l-.54,3.08h-4Zm-6.38,0-.55,3.08h-5l.54-3.08Z"/><path class="cls-2" d="M248.81,1.8h14.84c-.2,1.1-.39,2.2-.58,3.3,0,0-4.31,9-5,12.37-.61,3.09-.06,9.18-.42,12.27a11.41,11.41,0,0,1-.38,1.69c-.19.56-.61,1.61-1.07,2.74a6.91,6.91,0,0,1-6.41,4.28H246c-.11.62-.21,1.23-.32,1.85h-6.39q3.15-17.89,6.31-35.79a3.27,3.27,0,0,1,3.23-2.71m3.05,3.3L246.94,33h1.91a3.44,3.44,0,0,0,3.34-2.56,11.48,11.48,0,0,0,.29-1.34c.35-2.94-.14-8.69.3-11.63.5-3.36,3.86-12.37,3.86-12.37Z"/><polygon class="cls-2" points="217.37 3.45 210.15 3.45 210.52 1.39 204.73 1.39 204.35 3.45 197.14 3.45 196.72 5.84 198.34 5.84 195.52 12.61 199.05 12.61 203.1 5.84 203.94 5.84 202.74 12.61 205.36 12.61 205.92 12.61 208.53 12.61 209.72 5.84 210.56 5.84 212.23 12.61 215.75 12.61 215.33 5.84 216.39 5.84 217.37 3.45"/><polygon class="cls-2" points="196.28 3.45 189.06 3.45 189.43 1.39 183.65 1.39 183.27 3.45 176.05 3.45 175.63 5.84 177.25 5.84 174.44 12.61 177.96 12.61 182.02 5.84 182.85 5.84 181.66 12.61 184.27 12.61 184.83 12.61 187.44 12.61 188.64 5.84 189.47 5.84 191.14 12.61 194.66 12.61 194.24 5.84 195.3 5.84 196.28 3.45"/><path class="cls-2" d="M16.1,67a13.53,13.53,0,0,1-.65,2.27,1.51,1.51,0,0,1-1.63,1.16c-.8,0-1.55-.53-2.38-1.94a6.48,6.48,0,0,1-.48-1A22.18,22.18,0,0,1,8.12,70.1l-.85-.91a18.46,18.46,0,0,0,3.2-2.88A35.63,35.63,0,0,1,9.16,59H3.89v2.45H8.06c0,.63-.17,4.51-.24,5.2-.15,1.57-.48,2-2.16,2.2l-1,.1-.36-1.26,1.12-.1c1-.09,1-.26,1.14-1.28,0-.54.17-3.23.17-3.65H3.89a14.83,14.83,0,0,1-2,8.09L.66,70.14c1.53-2.38,2.06-4,2.06-7.91v-4.4H9.06c-.1-1.16-.2-2.58-.2-2.58h1.25l.19,2.58h2.84a21.53,21.53,0,0,0-1.8-1.9l.76-.8a16.72,16.72,0,0,1,2,2l-.68.71h2.09V59H10.4a36.47,36.47,0,0,0,1,6.14,18.58,18.58,0,0,0,2.26-4.9l1.15.41a19.87,19.87,0,0,1-3,5.88,8.62,8.62,0,0,0,.74,1.55c.48.77.87,1,1.16,1,.46,0,.63-.25.83-.83A9.34,9.34,0,0,0,15,66.4Z"/><path class="cls-2" d="M33.28,59.16c-.05,1.2-.35,7-.46,8.7S32,70,29.53,70.15l-1.23.07-.56-1.34,1.7-.07c1.67-.07,2-.3,2.16-1.56s.34-5.73.36-6.8H27c-.59,4.45-2.22,7-6.2,10.1l-1-1c3.74-2.76,5.29-5.08,5.85-9.06H20.14V59.16h5.68c.09-.78.26-3.1.31-3.83l1.27.05c0,.72-.19,2.94-.27,3.78Zm-11.88-3,.9-.8A17.41,17.41,0,0,1,24.65,58l-.92,1A15.73,15.73,0,0,0,21.4,56.2Zm8.16,9.86A15.05,15.05,0,0,0,27,62.91l.9-.85A16.19,16.19,0,0,1,30.5,65Z"/><path class="cls-2" d="M44.22,65.87V60.5H41.43v8h11v1.24H40.12V60.5H37.77V59.24h2.35V55.71l1.31,0v3.48h2.79V55.3l1.25.05v3.89H49v-4l1.29,0v3.91h2.75V60.5H50.3v5.37Zm1.25-5.37v4.15H49V60.5Z"/><path class="cls-2" d="M71,67a25.84,25.84,0,0,1-3.86-1.68v5.27H65.87V65.17l1.06,0A12.46,12.46,0,0,1,63.85,63a12.19,12.19,0,0,1-3.09,2.2l1.24,0v.87c0,1.92-.75,3.41-3.54,4.82l-.76-1.07c2.51-1.19,3-2.12,3-3.75v-.91A28.87,28.87,0,0,1,56.61,67l-.68-1.12a18.66,18.66,0,0,0,6.78-3.34H58.07V56H69.61V62.5H64.92a16.85,16.85,0,0,0,6.73,3.39Zm-11.73-10v1.68h3.94V57.07Zm0,4.35h3.94V59.77H59.31Zm9.06-4.35H64.43v1.68h3.94Zm0,4.35V59.77H64.43v1.65Z"/><path class="cls-2" d="M89.79,63.07h-15V61.62h15Z"/><path class="cls-2" d="M95.78,62.91a19.09,19.09,0,0,0-2.91-2.34l.7-1a19,19,0,0,1,2.82,2.11Zm.64,1.5a38.76,38.76,0,0,1-1.9,6.15l-1.26-.49a40.51,40.51,0,0,0,2.06-6Zm-2.77-7.6.7-1A18.14,18.14,0,0,1,97,58l-.65,1.16A19.76,19.76,0,0,0,93.65,56.81Zm6,6.61c.06,4.73-.63,5.77-2.81,7.52L96,70.19c2-1.6,2.58-2.5,2.53-6.82Zm.81-5H97.54V57.25h4.19c-.21-.66-.48-1.49-.63-1.92l1.2-.24c.19.45.53,1.53.73,2.16h4.56v1.14h-5.76a19.61,19.61,0,0,1-2.14,3c1.93-.12,4.11-.2,5.33-.25a19.08,19.08,0,0,0-1.24-1.48l.89-.68a25,25,0,0,1,2.75,3.55l-.9.84a13.18,13.18,0,0,0-.73-1.16c-1.74.08-6.61.29-8.25.51l-.18-1.05a2.4,2.4,0,0,0,.68-.21A10.37,10.37,0,0,0,100.45,58.39Zm1,5,1.22.05v6.83h-1.22Zm7,4a14.56,14.56,0,0,1-.17,1.69c-.17,1-.58,1.14-1.38,1.24a7.2,7.2,0,0,1-1.26,0c-1-.06-1.22-.37-1.22-1.34V63.37l1.17.05v5.36c0,.29.08.37.39.42a2.11,2.11,0,0,0,.71,0c.36,0,.51-.12.58-.54a10.83,10.83,0,0,0,.15-1.74Z"/><path class="cls-2" d="M115.65,58h2.63v12h-5.79V58h1.75a20.6,20.6,0,0,0,.8-2.91l1.37.29A22.41,22.41,0,0,1,115.65,58Zm1.44,1.22h-3.41v4h3.41Zm0,9.55V64.46h-3.41v4.28Zm8.81-10.81s-.12,7.33-.29,10.29c-.09,1.42-.49,1.87-2,2l-1.46.11L121.75,69l1.65-.1c.56,0,.85-.22.92-1.1.15-2.42.22-6.63.25-8.69l-3.87,0c-.33.74-.67,1.48-1,2.19l-1.16-.61a22.93,22.93,0,0,0,2.33-5.83l1.24.25c-.27,1-.56,1.87-.9,2.77Zm-3.77,8a29.3,29.3,0,0,0-2.37-4l1-.68a26.39,26.39,0,0,1,2.44,4Z"/><path class="cls-2" d="M144.85,66.62c-.06.81-.12,1.63-.25,2.4s-.7,1.08-2.25,1.17q-.91,0-1.83,0c-1.51-.09-2.06-.49-2.06-2.14V62.93h-2.63c0,.15,0,.31,0,.41-.22,3.86-1.41,5.54-5,7.36l-.91-1.16c3.43-1.68,4.48-2.84,4.6-6.24,0-.08,0-.23,0-.37h-4.06V61.66h6.4V55.37l1.33.05v6.24h6.43v1.27h-4.83v4.73c0,.9.29,1.07,1.17,1.13a6.32,6.32,0,0,0,1.23,0c.9-.06,1.22-.18,1.32-.76a11.86,11.86,0,0,0,.15-1.82Zm-10.6-5.53a31.54,31.54,0,0,0-2.71-4l1-.73a31.79,31.79,0,0,1,2.77,3.82Zm6.61-.05-1.09-.76a18.44,18.44,0,0,0,2.55-4l1.11.66A25.14,25.14,0,0,1,140.86,61Z"/><path class="cls-2" d="M163.33,66.28h-6.41v2.14c0,1.55-.52,1.82-2.32,1.94l-1.33.08-.37-1.22,1.41-.1c1.08-.09,1.27-.16,1.27-1.09V66.28h-6.93V65h6.93v-.82l2.84-1.78h-7V61.21h9.18v1.18l-3.66,2.34V65h6.41Zm-12.85-4.71h-1.27V58.29h2.68a13.28,13.28,0,0,0-1.25-2.23l1.17-.49A19.07,19.07,0,0,1,153.17,58l-.72.34h3.28a17.53,17.53,0,0,0-1.13-2.67l1.19-.39A24.3,24.3,0,0,1,157,58l-.8.29h2.3a20,20,0,0,0,1.63-3l1.24.5c-.36.67-.93,1.69-1.41,2.46h2.82v3.28H161.5V59.5h-11Z"/><path class="cls-2" d="M178.68,58.51c-.27.88-.69,2.06-1.08,3h3.7v1.24H169.93v1.44a9.55,9.55,0,0,1-2.13,6.65l-1.2-.7c1.61-1.88,2.07-3.42,2.07-6.2V61.54h3c-.27-1-.69-2.35-1-3H167.4V57.27h6.71c-.19-.65-.44-1.44-.61-1.87l1.26-.24c.18.46.52,1.48.73,2.11h6.37v1.24Zm-1.36,0h-5.25c.29.85.72,2.19,1,3h3.2A25.68,25.68,0,0,0,177.32,58.51Z"/><path class="cls-2" d="M186.18,63.15H192v7.09h-1.22v-.95h-3.4v.95h-1.23Zm1.23,1.16v3.81h3.4V64.31Zm10.11-2.89H188V55.94h9.52Zm-1.24-4.32h-7.06v3.13h7.06Zm3.18,6v7.09h-1.24v-.95h-3.44v.95h-1.22V63.15Zm-1.24,5V64.31h-3.44v3.81Z"/><path class="cls-2" d="M218.24,70.56A26.87,26.87,0,0,1,213,67.37,23.13,23.13,0,0,1,207,70.72l-.71-1.19a21.15,21.15,0,0,0,5.67-3,13.81,13.81,0,0,1-3.41-5.08c-.39,3.6-1.72,6.12-4.06,9.06l-1.08-.78c2.47-3,3.74-5.37,4-9.32,0-.59.1-2,.13-2.9h-2.85V56.27h11v1.25a19,19,0,0,1-1.89,3h3.22v1.2a15.55,15.55,0,0,1-3.17,4.8,21.44,21.44,0,0,0,5.07,2.8ZM213,65.7a12.4,12.4,0,0,0,2.75-4h-3.43V60.65a22.92,22.92,0,0,0,1.93-3.14h-5.4l-.05,1A15,15,0,0,0,213,65.7Z"/><path class="cls-2" d="M227.54,59.56h1.75V69c0,1-.3,1.19-1.46,1.34l-.53.07-.32-1,.58-.07c.63-.06.68-.15.68-.66V66.52h-1.45v3.14h-1V66.52h-1.48a9.94,9.94,0,0,1-1.19,4.14L222,70.17c1-2,1.28-3,1.28-6.36V60.07l-.72.77-.81-.8a15.54,15.54,0,0,0,3.43-4.88l1.15.27c-.2.46-.42.9-.64,1.31h3.06v.95A20,20,0,0,1,227.54,59.56Zm-3.82,0h2.53c.39-.56.77-1.17,1.12-1.78h-2.31A20.18,20.18,0,0,1,223.72,59.56Zm2,5.87V63.59h-1.41v.7c0,.41,0,.78,0,1.14Zm-1.41-4.79V62.5h1.41V60.64Zm3.91,0h-1.45V62.5h1.45Zm0,4.79V63.59h-1.45v1.84Zm3.36-7.63c0-.14.07-.33.11-.53h-1.82v-1h6.56s-.19,2.65-.22,3c-.1,1.29-.46,1.61-2.06,1.75l-.58,0-.37-1.07.76-.07c1-.08,1-.25,1.11-1,0-.33.14-1.33.15-1.6h-2.39c0,.32-.09.61-.14.87a5.53,5.53,0,0,1-2.52,3.57l-.74-.85A4.35,4.35,0,0,0,231.6,57.8Zm5.73,9.52h-3.11v3.33H233.1V67.32h-3.4V66.21h3.4V64.15h-1.78c-.23.63-.46,1.24-.7,1.77l-1-.37a19.56,19.56,0,0,0,1.32-4l1.06.17c-.09.43-.21.85-.33,1.29h1.43v-1.7l1.12,0V63h2.53v1.12h-2.53v2.06h3.11Z"/><path class="cls-2" d="M244.08,62.83a37.9,37.9,0,0,1-2.22,6.93l-1.26-.4a37.43,37.43,0,0,0,2.21-6.84l.76.17Zm-1.14-1.7a24.24,24.24,0,0,0-2-4.57l1.12-.55a26.42,26.42,0,0,1,2.09,4.44Zm12.87,8.24-.73,1.29c-3.23-1.54-5-3-6.08-5.13-.79,2-2.5,3.49-5.46,5.13l-.78-1.12c3.33-1.65,4.82-3.16,5.28-5.33h-3.67V63h3.81a2.42,2.42,0,0,0,0-.38l0-3.43h-3.18V58h3.18V55.23l1.33.07V58h4.16v5h1.74v1.21h-5.72C250.64,66.55,252.58,68.13,255.81,69.37ZM249.51,63h3V59.19h-3c0,1.63,0,3.18,0,3.37S249.52,62.85,249.51,63Z"/><path class="cls-2" d="M264.74,61.08c0,.13,0,.29,0,.42h7c0,.56-.32,5.44-.37,6-.17,2-.84,2.57-3.34,2.67l-1.27.07L266.22,69l1.68-.07c1.68-.07,2.07-.41,2.18-1.82,0-.41.23-3.89.27-4.3H264.6c-.41,3.32-1.63,5.37-4.6,8l-1-1c3.31-2.67,4.23-4.62,4.49-8.82l.1-2h-4.18V57.64h6.9a14,14,0,0,0-.68-2.19l1.24-.34a22.21,22.21,0,0,1,.78,2.53h6.17v1.24h-9C264.82,59.48,264.77,60.33,264.74,61.08Z"/><path class="cls-2" d="M292.26,70.27a21.71,21.71,0,0,1-6.63-3.14v3.7h-1.27v-3.6a22.44,22.44,0,0,1-6.65,3.13l-.63-1.17a19.21,19.21,0,0,0,6.71-2.76h-5.93V65.34h6.5V64l1.27,0v1.25h6.53v1.09h-5.85a20.32,20.32,0,0,0,6.54,2.76Zm-10.81-9.53h-3.79v-1h4.6a16.84,16.84,0,0,0,1-1.46l1.3.32c-.22.36-.51.75-.8,1.14h8.56v1h-3.16a6.68,6.68,0,0,1-2.05,1.83c1.58.45,3.17.9,4.35,1.3L291,65a54,54,0,0,0-5.25-1.73,31.37,31.37,0,0,1-7.24,1.51l-.43-1.05a38.8,38.8,0,0,0,5.95-.92c-1.41-.37-2.7-.68-3.67-.87C280.73,61.55,281.09,61.16,281.45,60.74Zm-1.53-1.48h-1.29V56.9h6c-.17-.57-.39-1.23-.54-1.6l1.14-.21c.15.4.44,1.23.63,1.81h5.49v2.38h-1.28V57.92H279.92Zm3,1.48c-.22.24-.42.47-.61.66.83.17,2,.44,3.3.78a5.38,5.38,0,0,0,1.9-1.44Z"/><path class="cls-2" d="M299.16,63.58v5.16c0,1.24-.42,1.58-1.83,1.69l-.68.06-.36-1.2.73-.07c.73-.07,1-.24,1-.85V64.05c-.88.33-1.75.65-2.38.83l-.15-1.29c.66-.18,1.6-.51,2.53-.85V59.65h-2V58.46h2v-3l1.19,0v3H301v1.19h-1.8v2.62c.43-.17.82-.34,1.14-.48l.05.77,0,.49Zm11.95,5.33-.3,1.18c-1.43.06-2.79.08-4.22,0-2,0-3.26-.58-4.21-2.4a9.17,9.17,0,0,1-2.08,3l-.93-.78a7.41,7.41,0,0,0,2.55-5.17l1.19.13c-.09.58-.19,1.09-.31,1.57a3.41,3.41,0,0,0,2.28,2.29V64h-4.52V63h10V64h-4.3v1.71h3.61v1H306.3v2.16l.31,0A42.22,42.22,0,0,0,311.11,68.91Zm-1.83-7.17h-7.43V56.06h7.43ZM303,57.08v1.31h5V57.08Zm5,3.67V59.38h-5v1.37Z"/><path class="cls-2" d="M317.56,59V70.58h-1.24V61.26c-.5.8-1.06,1.6-1.67,2.44l-.9-.91a22.86,22.86,0,0,0,3.94-7.63l1.26.27A26.17,26.17,0,0,1,317.56,59ZM329.35,64v1.24H318.24V64h2.65V59.7H319V58.51h1.9V55.33l1.27.05v3.13h3.27V55.33l1.24.05v3.13h2.11V59.7h-2.11V64ZM322,65.89l.93.81a37.7,37.7,0,0,1-3.79,3.88l-.92-.94A19.76,19.76,0,0,0,322,65.89Zm.13-1.92h3.27V59.7h-3.27ZM329,69.63l-.8,1a27.78,27.78,0,0,0-3.53-3.84l.81-.87A33.45,33.45,0,0,1,329,69.63Z"/><path class="cls-2" d="M343.86,58.1c-.23.73-.55,1.67-.69,2.09h3.29v8.49c0,1.29-.26,1.54-1.82,1.68l-1.18.1-.37-1.14,1.36-.12c.7-.07.8-.17.82-1V61.32h-10v9.09H334.1V60.19h3.24c-.18-.68-.44-1.54-.62-2.09h-3.88V57h7c-.17-.56-.37-1.14-.51-1.5l1.26-.24c.15.38.41,1.12.61,1.74h6.58V58.1Zm-6.5,10.54V64.29c-.29.25-.61.51-1,.8l-.82-.82a12.72,12.72,0,0,0,2.82-2.63l.87.75a12.42,12.42,0,0,1-1.8,1.83h5.78v4.42Zm5.29-10.54H338c.18.6.46,1.48.61,2.09h3.36C342.17,59.58,342.5,58.66,342.65,58.1Zm-4.12,9.45h3.54V65.34h-3.54Zm2.78-5.11.76-.75c.6.49,2.26,1.9,2.84,2.53l-.71.92A29.74,29.74,0,0,0,341.31,62.44Z"/></svg>