<?xml version="1.0" encoding="utf-8"?>
<!-- Generator: Adobe Illustrator 27.0.0, SVG Export Plug-In . SVG Version: 6.00 Build 0)  -->
<svg version="1.1" id="Warstwa_1" xmlns="http://www.w3.org/2000/svg" xmlns:xlink="http://www.w3.org/1999/xlink" x="0px" y="0px"
	 viewBox="0 0 208.8 57.2" style="enable-background:new 0 0 208.8 57.2;" xml:space="preserve">
<style type="text/css">
	.st0{fill-rule:evenodd;clip-rule:evenodd;}
	.st1{fill-rule:evenodd;clip-rule:evenodd;fill:#C8161E;}
</style>
<path id="svg_1" class="st0" d="M30.2,41.4h-3.7V26.3c0-0.6,0.1-1.2,0.2-1.7c0.2-0.5,0.4-1,0.7-1.3c0.3-0.4,0.6-0.7,0.9-1
	c0.4-0.3,0.7-0.5,1.1-0.7c0.4-0.2,0.8-0.3,1.2-0.4c0.4-0.1,0.8-0.1,1.1-0.1h6.8c0.6,0,1.2,0.1,1.7,0.2c0.5,0.2,1,0.4,1.3,0.6
	c0.4,0.3,0.7,0.6,1,0.9c0.3,0.4,0.5,0.7,0.7,1.1c0.2,0.4,0.3,0.8,0.4,1.2c0.1,0.4,0.1,0.8,0.1,1.1v5.1c0,0.6-0.1,1.2-0.2,1.7
	c-0.2,0.5-0.4,1-0.6,1.4c-0.3,0.4-0.6,0.7-0.9,1c-0.4,0.3-0.7,0.5-1.1,0.7c-0.4,0.2-0.8,0.3-1.2,0.4c-0.4,0.1-0.8,0.1-1.1,0.1h-6.8
	v-3.7h6.8c0.5,0,0.9-0.1,1.1-0.4c0.2-0.3,0.4-0.6,0.4-1.1v-5c0-0.5-0.1-0.9-0.4-1.2c-0.3-0.2-0.6-0.4-1.1-0.4h-6.7
	c-0.5,0-0.9,0.1-1.2,0.4c-0.3,0.3-0.4,0.6-0.4,1.1V41.4z M104.2,36.6h-3.7V21h3.7V36.6z M146.1,36.6h-10.1v-3.7H146
	c0.5,0,0.9-0.1,1.2-0.4c0.3-0.3,0.4-0.6,0.4-1.1c0-1-0.6-1.5-1.5-1.5h-5.8c-0.8,0-1.5-0.1-2.1-0.4c-0.6-0.3-1-0.6-1.4-1.1
	c-0.4-0.4-0.6-0.9-0.8-1.4c-0.2-0.5-0.2-1-0.2-1.4c0-0.8,0.1-1.5,0.4-2.1c0.3-0.6,0.7-1,1.1-1.4c0.5-0.4,0.9-0.6,1.5-0.8
	c0.5-0.2,1-0.2,1.5-0.2h9.2v3.7h-9.2c-0.2,0-0.3,0-0.5,0.1c-0.1,0-0.2,0.1-0.2,0.2c-0.1,0.1-0.1,0.1-0.1,0.2c0,0.1,0,0.2,0,0.2
	c0,0.2,0,0.3,0.1,0.4c0,0.1,0.1,0.1,0.2,0.2c0.1,0,0.2,0.1,0.2,0.1c0.1,0,0.2,0,0.3,0h5.8c1,0,1.8,0.2,2.4,0.5s1.2,0.8,1.6,1.3
	c0.4,0.5,0.7,1.1,0.9,1.7c0.2,0.6,0.3,1.2,0.3,1.7c0,0.6-0.1,1.2-0.2,1.7c-0.2,0.5-0.4,1-0.6,1.4c-0.3,0.4-0.6,0.7-0.9,1
	c-0.4,0.3-0.7,0.5-1.1,0.7c-0.4,0.2-0.8,0.3-1.2,0.4C146.8,36.5,146.4,36.6,146.1,36.6z M202.5,24.8h-9.2c-0.2,0-0.3,0-0.5,0.1
	c-0.1,0-0.2,0.1-0.2,0.2c-0.1,0.1-0.1,0.1-0.1,0.2c0,0.1,0,0.2,0,0.2c0,0.2,0,0.3,0.1,0.4c0,0.1,0.1,0.1,0.2,0.2
	c0.1,0,0.2,0.1,0.2,0.1c0.1,0,0.2,0,0.3,0h5.8c1,0,1.8,0.2,2.4,0.5c0.7,0.3,1.2,0.8,1.6,1.3c0.4,0.5,0.7,1.1,0.9,1.7
	c0.2,0.6,0.3,1.2,0.3,1.7c0,0.6-0.1,1.2-0.2,1.7c-0.2,0.5-0.4,1-0.6,1.4c-0.3,0.4-0.6,0.7-0.9,1c-0.4,0.3-0.7,0.5-1.1,0.7
	c-0.4,0.2-0.8,0.3-1.2,0.4c-0.4,0.1-0.8,0.1-1.1,0.1h-10.1v-3.7H199c0.5,0,0.9-0.1,1.2-0.4s0.4-0.6,0.4-1.1c0-1-0.6-1.5-1.5-1.5
	h-5.8c-0.8,0-1.5-0.1-2.1-0.4c-0.6-0.3-1-0.6-1.4-1.1s-0.6-0.9-0.8-1.4c-0.2-0.5-0.2-1-0.2-1.4c0-0.8,0.1-1.5,0.4-2.1
	c0.3-0.6,0.7-1,1.1-1.4c0.5-0.4,0.9-0.6,1.5-0.8s1-0.2,1.5-0.2h9.2C202.5,21,202.5,24.8,202.5,24.8z M97.3,36.6H87.1
	c-0.5,0-1.1-0.1-1.7-0.3c-0.6-0.2-1.2-0.5-1.7-0.9c-0.5-0.4-1-1-1.3-1.6c-0.4-0.7-0.5-1.5-0.5-2.5v-5.1c0-0.4,0-0.7,0.1-1.1
	c0.1-0.4,0.2-0.8,0.4-1.2c0.2-0.4,0.4-0.8,0.7-1.1c0.3-0.4,0.6-0.7,1-0.9c0.4-0.3,0.8-0.5,1.3-0.6c0.5-0.2,1.1-0.2,1.7-0.2h10.2v3.7
	H87.1c-0.5,0-0.9,0.1-1.1,0.4c-0.3,0.2-0.4,0.6-0.4,1.2v5c0,0.5,0.1,0.9,0.4,1.1c0.3,0.3,0.6,0.4,1.1,0.4h10.1L97.3,36.6L97.3,36.6z
	 M114.6,36.6h-1.7c-0.5,0-1.1-0.1-1.7-0.3s-1.2-0.5-1.7-0.9c-0.5-0.4-1-1-1.3-1.6s-0.5-1.5-0.5-2.5V14.4h3.7v16.9
	c0,0.5,0.1,0.8,0.4,1.1c0.3,0.3,0.6,0.4,1.1,0.4h1.7V36.6z M50.6,36.6h-3.7V26.3c0-0.6,0.1-1.2,0.2-1.7s0.4-1,0.7-1.3
	c0.3-0.4,0.6-0.7,0.9-1c0.4-0.3,0.7-0.5,1.1-0.7s0.8-0.3,1.2-0.4c0.4-0.1,0.8-0.1,1.1-0.1h8.5v3.7h-8.4c-0.5,0-0.9,0.1-1.2,0.4
	c-0.3,0.3-0.4,0.6-0.4,1.1V36.6z M176.9,36.6h-3.7V26.3c0-0.6,0.1-1.2,0.2-1.7c0.2-0.5,0.4-1,0.7-1.3c0.3-0.4,0.6-0.7,0.9-1
	c0.4-0.3,0.7-0.5,1.1-0.7c0.4-0.2,0.8-0.3,1.2-0.4c0.4-0.1,0.8-0.1,1.1-0.1h8.4v3.7h-8.4c-0.5,0-0.9,0.1-1.2,0.4
	c-0.3,0.3-0.4,0.6-0.4,1.1V36.6z M74.5,36.6h-6.8c-0.5,0-1.1-0.1-1.7-0.3c-0.6-0.2-1.2-0.5-1.7-0.9c-0.5-0.4-0.9-0.9-1.3-1.6
	c-0.3-0.7-0.5-1.5-0.5-2.4v-5.3c0-0.5,0.1-1.1,0.3-1.7c0.2-0.6,0.5-1.2,0.9-1.7c0.4-0.5,0.9-0.9,1.6-1.3c0.7-0.3,1.5-0.5,2.4-0.5
	h6.8c0.5,0,1.1,0.1,1.7,0.3c0.6,0.2,1.2,0.5,1.7,0.9c0.5,0.4,0.9,0.9,1.3,1.6c0.3,0.7,0.5,1.5,0.5,2.4c0,0.5-0.1,1.1-0.3,1.7
	c-0.2,0.6-0.5,1.2-0.9,1.7c-0.4,0.5-0.9,0.9-1.6,1.3c-0.7,0.3-1.5,0.5-2.4,0.5h-6.8v-3.6h6.8c0.5,0,0.9-0.2,1.2-0.5
	c0.3-0.3,0.4-0.7,0.4-1.2c0-0.5-0.2-0.9-0.5-1.2c-0.3-0.3-0.7-0.4-1.1-0.4h-6.8c-0.5,0-0.9,0.2-1.2,0.5c-0.3,0.3-0.4,0.7-0.4,1.2
	v5.2c0,0.5,0.2,0.9,0.5,1.2c0.3,0.3,0.7,0.4,1.2,0.4h6.7C74.5,33,74.5,36.6,74.5,36.6z M121.2,29.8c-0.5,0-0.9,0.2-1.2,0.5
	c-0.3,0.3-0.4,0.7-0.4,1.2c0,0.5,0.2,0.9,0.5,1.1c0.3,0.3,0.7,0.4,1.1,0.4h6.7c0.5,0,0.9-0.2,1.2-0.5c0.3-0.3,0.4-0.7,0.4-1.2v-5.2
	c0-0.5-0.2-0.9-0.5-1.2c-0.3-0.3-0.7-0.4-1.1-0.4h-8.2V21h8.2c0.5,0,1.1,0.1,1.7,0.3c0.6,0.2,1.2,0.5,1.7,0.9
	c0.5,0.4,0.9,0.9,1.3,1.6c0.3,0.7,0.5,1.5,0.5,2.4v5.3c0,0.5-0.1,1.1-0.3,1.7c-0.2,0.6-0.5,1.2-0.9,1.7c-0.4,0.5-0.9,0.9-1.6,1.3
	c-0.7,0.3-1.5,0.5-2.4,0.5h-6.8c-0.5,0-1.1-0.1-1.7-0.3c-0.6-0.2-1.2-0.5-1.7-0.9c-0.5-0.4-0.9-0.9-1.3-1.6
	c-0.3-0.7-0.5-1.5-0.5-2.4c0-0.5,0.1-1.1,0.3-1.7c0.2-0.6,0.5-1.2,0.9-1.7c0.4-0.5,0.9-0.9,1.6-1.3c0.7-0.3,1.5-0.5,2.4-0.5h6.8v3.6
	L121.2,29.8L121.2,29.8z M165.5,36.6h-6.8c-0.5,0-1.1-0.1-1.7-0.3c-0.6-0.2-1.2-0.5-1.7-0.9c-0.5-0.4-0.9-0.9-1.3-1.6
	c-0.3-0.7-0.5-1.5-0.5-2.4v-5.3c0-0.5,0.1-1.1,0.3-1.7c0.2-0.6,0.5-1.2,0.9-1.7c0.4-0.5,0.9-0.9,1.6-1.3c0.7-0.3,1.5-0.5,2.4-0.5
	h6.8c0.5,0,1.1,0.1,1.7,0.3c0.6,0.2,1.2,0.5,1.7,0.9c0.5,0.4,0.9,0.9,1.3,1.6c0.3,0.7,0.5,1.5,0.5,2.4c0,0.5-0.1,1.1-0.3,1.7
	c-0.2,0.6-0.5,1.2-0.9,1.7c-0.4,0.5-0.9,0.9-1.6,1.3c-0.7,0.3-1.5,0.5-2.4,0.5h-6.8v-3.6h6.8c0.5,0,0.9-0.2,1.2-0.5
	c0.3-0.3,0.4-0.7,0.4-1.2c0-0.5-0.2-0.9-0.5-1.2c-0.3-0.3-0.7-0.4-1.1-0.4h-6.8c-0.5,0-0.9,0.2-1.2,0.5s-0.4,0.7-0.4,1.2v5.2
	c0,0.5,0.2,0.9,0.5,1.2c0.3,0.3,0.7,0.4,1.2,0.4h6.7V36.6z"/>
<path id="svg_2" class="st1" d="M30.3,55C15.7,55,3.9,42.9,3.9,28S15.7,1,30.3,1C38.4,1,46,4.8,51,11.3c1.2,1.6,1,3.9-0.6,5.2
	c-1.5,1.3-3.8,1-5-0.6c-3.7-4.8-9.2-7.5-15.2-7.5C19.6,8.4,11,17.2,11,28s8.7,19.6,19.3,19.6c6,0,11.5-2.7,15.2-7.5
	c1.2-1.6,3.5-1.8,5-0.6c1.5,1.3,1.8,3.6,0.6,5.2C46,51.2,38.4,55,30.3,55z M106.9,46.3v-0.6h1.7v0.6c0,1.7-0.1,3-0.4,4
	c0.8,0.5,1.9,1.3,3.2,2.3c0.2,0.1,0.3,0.2,0.4,0.2l-1.3,1.4c-1.1-1-2.1-1.8-3-2.3c-0.6,0.8-1.6,1.6-3,2.4c-0.2-0.2-0.4-0.4-0.7-0.7
	c-0.3-0.4-0.5-0.6-0.7-0.8c1.7-0.6,2.8-1.4,3.2-2.4C106.7,49.5,106.9,48.1,106.9,46.3z M111.6,42.2h-3.2l-0.2,1.1h3v7.4h-1.7v-5.6
	H106v5.6h-1.7v-1.9c-1.3,2.5-3.4,4.4-6.2,5.6c-0.2-0.5-0.6-1-1.1-1.7c1.6-0.5,2.9-1.2,3.9-2.2h-0.7v-3.8h1.8v2.6
	c0.1-0.2,0.3-0.5,0.6-1c0.2-0.3,0.3-0.5,0.4-0.7l1.4,0.9v-5.1h2l0.2-1.1h-2.7v-1.8h7.7C111.6,40.4,111.6,42.2,111.6,42.2z M141.3,54
	h-0.7c0-0.5-0.2-1-0.4-1.4c-0.3,0.6-0.7,1.2-1.3,1.7c-0.4-0.4-0.8-0.8-1.4-1.2c1.2-0.8,1.7-2,1.7-3.4v-0.9h-0.9v-1.3h2.2
	c-0.1-0.3-0.2-0.6-0.4-0.7h1.9c0,0.1,0,0.2,0.1,0.4c0.1,0.2,0.1,0.3,0.1,0.4h2v1.3h-3.5v0.8h3c0,0.3,0,0.7-0.1,1.4
	c0,0.6,0,1.1-0.1,1.3c0,1.1-0.6,1.7-1.8,1.7C141.8,53.9,141.6,53.9,141.3,54z M143.9,40.9v3.9c0.7-1.4,1.2-3.1,1.7-5.1l1.8,0.4
	c-0.2,0.7-0.4,1.5-0.7,2.2h2.8V44h-0.6c-0.1,2.3-0.6,4.4-1.3,6.2c0.6,0.9,1.2,1.6,1.9,2c-0.3,0.8-0.6,1.4-0.9,1.9
	c-0.7-0.6-1.4-1.3-1.9-2c-0.5,0.8-1.2,1.5-1.9,2.2c-0.4-0.6-0.8-1.2-1.2-1.7c0.8-0.7,1.5-1.5,2-2.4c-0.5-1.1-0.8-2.4-0.9-3.8
	c-0.1,0.1-0.2,0.3-0.3,0.4c0,0.1-0.1,0.2-0.1,0.2c-0.2-0.2-0.4-0.5-0.6-0.8v0.2h-5.2v-5.5h1.3c0-0.2,0.1-0.4,0.2-0.7
	c0.1-0.2,0.1-0.4,0.2-0.5h2c-0.2,0.4-0.4,0.8-0.5,1.2C141.9,40.9,143.9,40.9,143.9,40.9z M162.4,45.4h6.1v2h-4.3v3.7
	c0,0.6,0.2,0.9,0.7,0.9h0.4c0.5,0,0.9-0.4,1-1.1c0-0.1,0-0.2,0.1-0.5c0-0.2,0.1-0.8,0.2-1.9c0.5,0.2,1.1,0.4,1.8,0.6
	c0.2,0,0.3,0.1,0.4,0.1c-0.2,1.3-0.4,2.4-0.6,3.2c-0.3,0.9-1.1,1.4-2.4,1.4h-1.4c-1.6,0-2.4-0.8-2.4-2.3v-4.1h-1.7
	c0,3.4-1.5,5.7-4.6,6.7c-0.6-0.7-1.1-1.3-1.6-1.7c2.6-0.9,3.9-2.6,3.9-5.1h-3.6v-2h5.9v-5.6h2.2C162.4,39.8,162.4,45.4,162.4,45.4z
	 M136.4,47.9c0.1,0,0.3,0.1,0.6,0.2c0.3,0.1,0.7,0.3,1.1,0.4c-0.4,2-0.7,3.9-1.1,5.6c-0.3-0.1-0.7-0.2-1.2-0.4
	c-0.3-0.1-0.5-0.1-0.6-0.2c0.2-0.7,0.5-2.1,0.9-4.1C136.2,48.8,136.3,48.3,136.4,47.9z M122.8,54.2h-2v-7.9
	c-0.1,0.1-0.2,0.3-0.4,0.6c-0.2,0.2-0.3,0.4-0.4,0.6c-0.1-0.3-0.3-0.8-0.6-1.3c-0.2-0.3-0.3-0.6-0.3-0.7c1.3-1.6,2.2-3.5,2.9-5.6
	l1.9,0.5c-0.1,0.3-0.2,0.7-0.4,1.2c-0.2,0.4-0.3,0.7-0.4,0.9h3c-0.1-0.2-0.3-0.4-0.6-0.7c-0.3-0.4-0.6-0.7-0.7-0.9l1.5-1.1
	c0.1,0.2,0.3,0.4,0.6,0.7c0.2,0.2,0.6,0.6,1.2,1.3l-0.9,0.7h3.3v1.5h-3v1.6h2.9V47h-2.9v1.5h2.9v1.5h-2.9v1.6h3.2v1.4h-7.7
	L122.8,54.2L122.8,54.2z M117.9,46.5c0.7,0.4,1.3,0.7,1.9,1c-0.2,0.8-0.9,2.8-2.1,6.1c-0.5-0.4-1.2-0.7-1.9-1.1
	C116.6,50.9,117.3,48.8,117.9,46.5z M142.1,50.9h-1.3c-0.1,0.6-0.2,1.2-0.5,1.7h1.1c0.5,0,0.7-0.2,0.7-0.6V50.9z M125.4,50.1h-2.6
	v1.6h2.6V50.1z M98.3,47.2l1.5,0.6c-0.5,1.3-0.9,2.5-1.4,3.4c-0.4-0.2-0.9-0.5-1.5-0.7C97.3,49.6,97.8,48.5,98.3,47.2z M125.4,47
	h-2.6v1.5h2.6V47z M147.4,44h-1.3c0,1.5,0.2,2.9,0.6,4.1C147.1,46.8,147.4,45.4,147.4,44z M135,45.2l1.2-1.4
	c0.8,0.6,1.5,1.2,2.2,1.9l-1.2,1.5c-0.4-0.4-1-0.9-2-1.7C135.8,45.9,135.8,45.9,135,45.2z M102.1,41.8h1.5v1.6h-1.5v1.4h1.8v1.5H97
	v-1.5h0.7v-3.6h1.8v3.6h0.9v-4.9h1.8L102.1,41.8L102.1,41.8z M125.4,43.8h-2.6v1.6h2.6V43.8z M165.9,40.6l1.9,1.4
	c-1.3,1.5-2.3,2.6-3,3.3l-1.7-1.4C163.9,43.1,164.8,42,165.9,40.6z M142.3,44.2h-1.9v0.9h1.9V44.2z M154.9,41.9l1.6-1.3
	c1.2,1.2,2.1,2.2,2.8,3.1l-1.7,1.4C156.6,43.8,155.7,42.7,154.9,41.9z M115.9,41.6l1.6-1.1c0.4,0.5,1.1,1.4,1.9,2.5
	c0.2,0.2,0.3,0.4,0.4,0.6l-1.8,1.2C117.3,43.7,116.6,42.6,115.9,41.6z M135.3,41.2l1.2-1.3c0.1,0.1,0.3,0.2,0.6,0.4
	c0.5,0.4,1.1,0.8,1.7,1.4l-1.3,1.5C136.8,42.6,136.1,41.9,135.3,41.2z M142.3,42.2h-1.9v0.9h1.9V42.2z M35.7,24.7l1.3,2.8l2.8,1.3
	L37,30.2L35.7,33l-1.3-2.8l-2.8-1.3l2.8-1.3C34.3,27.5,35.7,24.7,35.7,24.7z M102.4,3.1l2.4,5.1l5.1,2.4l-5.1,2.4l-2.4,5.1l-2.4-5.1
	l-5.1-2.4l5.1-2.4L102.4,3.1z"/>
</svg>
